<svg width="200" height="200" viewBox="0 0 200 200" fill="none" xmlns="http://www.w3.org/2000/svg">
<path d="M99.9225 200C44.7484 200 0 155.212 0 100.103C0 44.6853 44.7484 -0.051555 100.026 4.45914e-05C155.561 0.0516442 200.103 44.9433 200 100.671C199.845 155.366 154.839 200.052 99.9225 200Z" fill="#B25FCC"/>
<path fill-rule="evenodd" clip-rule="evenodd" d="M107.553 38.7432C104.38 38.7395 101.206 38.7358 98.0326 38.7358C94.8775 38.7358 91.7186 38.7395 88.5561 38.7432C79.0538 38.7542 69.5183 38.7654 59.9495 38.6768C57.2335 38.6768 56.4069 39.6215 56.4069 42.2784C56.525 58.9877 56.525 75.7561 56.4069 92.4654C56.3479 95.2995 57.2926 96.1851 60.1267 96.1851C73.5886 96.067 87.1096 96.1261 100.571 96.2442C103.169 96.3032 105 95.5356 106.063 93.2329C106.172 93.0317 106.344 92.8417 106.517 92.6508C106.903 92.2258 107.292 91.7959 107.007 91.2255C106.643 90.5881 105.998 90.6528 105.37 90.7158C105.183 90.7346 104.998 90.7531 104.823 90.7531H84.7478C77.9578 90.6941 71.1678 90.6941 64.3778 90.6941C64.2869 90.6941 64.195 90.6954 64.1032 90.6967H64.103H64.1029C63.1214 90.7106 62.1342 90.7245 62.1342 89.1589C62.1342 86.7677 62.0899 84.3617 62.0456 81.9556C62.0013 79.5496 61.957 77.1436 61.957 74.7523C61.957 71.4216 61.9883 68.0909 62.0196 64.763V64.7624V64.7622C62.0742 58.9465 62.1287 53.1394 62.0161 47.3562C61.957 44.6992 62.7246 44.1678 65.0863 44.1678H130.034C133.695 44.1678 133.754 44.2859 133.754 48.0647C133.754 50.6779 133.747 53.2977 133.741 55.9196L133.741 55.9262V55.9265V55.9268C133.728 61.1815 133.715 66.4449 133.754 71.6821C133.754 71.9028 133.742 72.1332 133.729 72.3655C133.656 73.7492 133.579 75.1992 136.057 75.0476C138.477 74.9295 139.776 74.339 139.717 71.4459C139.54 61.7037 139.599 51.9615 139.717 42.2194C139.776 39.5624 138.832 38.6768 136.116 38.6768C126.595 38.7653 117.074 38.7543 107.553 38.7432ZM16.2572 104.746C16.2572 101.794 16.2609 98.842 16.2646 95.8898C16.2757 87.0333 16.2867 78.1768 16.1982 69.3202C16.1391 66.4862 16.9067 65.2462 19.977 65.3053C30.0143 65.4824 40.0517 65.4234 50.0891 65.3643C52.3918 65.3643 53.5137 66.0728 53.5137 68.6117C53.5137 71.2687 51.9785 71.3277 50.0301 71.3277C47.5798 71.2982 45.1147 71.2982 42.6497 71.2982C40.1846 71.2982 37.7195 71.2982 35.2692 71.2687C33.1436 71.2096 32.317 71.9772 32.317 74.2209C32.3761 82.4869 32.3761 90.753 32.317 99.0191C32.317 101.145 32.9665 101.971 35.2102 101.971C48.3769 101.912 61.5436 101.912 74.7693 101.912C76.0683 101.912 77.3672 101.912 77.8396 100.318C78.1938 99.1372 79.1976 99.0782 80.2604 99.0782C81.1884 99.0782 82.1202 99.0818 83.0537 99.0855H83.054C85.8622 99.0966 88.687 99.1077 91.4786 99.0191C93.4861 98.9601 94.3127 99.8457 94.3127 101.853C94.2537 114.961 94.2537 128.009 94.3127 141.117C94.3127 143.892 92.8366 144.069 90.7111 144.01C79.0992 143.971 67.4873 143.984 55.8754 143.997C50.0695 144.004 44.2635 144.01 38.4576 144.01H20.4493C16.3163 144.01 16.2572 143.951 16.2572 139.936V104.746ZM54.9897 107.403C48.3769 107.403 41.823 107.403 35.2102 107.344C33.3208 107.344 32.317 107.817 32.317 110.001C32.3761 118.444 32.3761 126.888 32.317 135.39C32.317 137.338 33.1436 137.988 34.974 137.988C48.3178 137.929 61.7207 137.929 75.0645 137.988C76.9539 137.988 77.7215 137.161 77.7215 135.331C77.7215 127.183 77.7805 119.035 77.8986 110.887C77.8986 108.466 77.1311 107.344 74.4741 107.403C70.0982 107.482 65.7487 107.456 61.4255 107.429C59.2737 107.416 57.1285 107.403 54.9897 107.403ZM24.2281 102.089C23.9819 102.103 23.7295 102.111 23.4754 102.119C21.5357 102.182 19.5046 102.247 19.5046 104.805C19.5046 107.127 21.254 107.129 22.8605 107.131C23.2557 107.132 23.6422 107.132 23.9919 107.167C26.0584 107.344 28.7154 107.344 28.8335 104.687C28.9273 102.389 27.1206 102.289 25.4561 102.197C25.0254 102.173 24.6043 102.15 24.2281 102.089ZM86.519 102.148C86.0512 102.148 85.6947 102.139 85.4052 102.132C84.9639 102.12 84.6787 102.113 84.3934 102.148C82.7992 102.326 81.3822 102.798 81.3822 104.687C81.3822 106.577 82.7992 107.049 84.3934 107.167C84.8657 107.226 85.3971 107.226 85.8695 107.226C86.1636 107.209 86.4741 107.203 86.7902 107.197C88.6317 107.162 90.6607 107.123 90.7111 104.805C90.8076 102.246 88.8503 102.214 87.3913 102.191H87.3912H87.3911C87.0663 102.186 86.7662 102.181 86.519 102.148ZM24.7004 81.4242C24.3434 81.4242 24.0538 81.4157 23.803 81.4084C23.3902 81.3964 23.0825 81.3874 22.752 81.4242C21.2169 81.5422 19.5636 81.7194 19.4456 83.6088C19.3275 85.6162 20.9807 86.1476 22.5749 86.4429C22.9309 86.5319 23.3205 86.5202 23.693 86.5091H23.6931C23.8148 86.5055 23.9346 86.5019 24.051 86.5019C24.1395 86.4994 24.2287 86.4972 24.3184 86.4949L24.3212 86.4949L24.3237 86.4948C26.3875 86.4428 28.7154 86.3841 28.7154 83.7269C28.7629 81.4943 27.0524 81.4782 25.644 81.465C25.3018 81.4618 24.9774 81.4588 24.7004 81.4242ZM24.11 117.323C24.5272 117.27 24.9932 117.273 25.4657 117.276C27.133 117.285 28.8795 117.294 28.8335 114.902C28.7835 112.505 26.8748 112.6 25.1442 112.686L25.1438 112.686C24.8286 112.702 24.5192 112.717 24.2281 112.717C23.8981 112.728 23.5394 112.713 23.1719 112.697H23.1718H23.1717H23.1716C21.435 112.625 19.5046 112.545 19.5046 115.079C19.5957 117.311 21.2325 117.294 22.7892 117.278H22.7893H22.7894H22.7895C23.2508 117.273 23.7051 117.269 24.11 117.323ZM23.9919 75.8741V75.9922C24.2994 75.9685 24.6163 75.9638 24.9352 75.9591H24.9352H24.9352H24.9353C25.4123 75.952 25.8936 75.9449 26.3536 75.8741C27.7116 75.6379 28.8925 74.9884 28.8335 73.4533C28.7744 71.9182 27.5345 71.3868 26.1175 71.3277H21.6892C20.3312 71.3868 19.3865 72.0362 19.3865 73.4533C19.3865 74.8703 20.2722 75.5788 21.5711 75.756C22.2344 75.8981 22.8976 75.8882 23.5304 75.8787H23.5304C23.6863 75.8764 23.8402 75.8741 23.9919 75.8741ZM24.696 96.6113H24.6961C25.2143 96.6245 25.7412 96.6379 26.2946 96.5983C27.6526 96.4802 28.8925 95.9489 28.9516 94.4137C29.0106 92.7015 27.7707 92.052 26.2356 92.052C24.7595 91.9929 23.2834 91.9929 21.8663 92.111C20.5674 92.2291 19.5636 92.8786 19.5046 94.2366C19.4456 95.7717 20.5083 96.4802 21.9254 96.5983C22.3542 96.6373 22.783 96.6248 23.2288 96.6118H23.2288C23.4582 96.6051 23.6921 96.5983 23.9329 96.5983C24.1865 96.5983 24.4401 96.6048 24.6958 96.6113H24.6959H24.696ZM24.3951 127.893H24.397C26.5366 127.903 28.8335 127.913 28.8335 125.471C28.8335 123.026 26.7682 123.173 25.0259 123.298L25.0255 123.298L25.025 123.298L25.0247 123.298C24.7478 123.318 24.479 123.337 24.2281 123.345C23.9173 123.345 23.5737 123.32 23.2182 123.293C21.5476 123.169 19.6123 123.026 19.5636 125.412C19.4724 127.738 21.1789 127.774 22.7221 127.806C23.1762 127.815 23.6161 127.824 23.9919 127.891C24.1253 127.891 24.2599 127.892 24.3951 127.893ZM85.8695 127.655H87.936C89.4711 127.655 90.7701 127.183 90.8882 125.471C91.0063 123.522 89.5302 123.05 87.936 122.991C87.1488 122.951 86.3615 122.965 85.5743 122.978C85.1806 122.984 84.787 122.991 84.3934 122.991C82.7402 123.05 81.4412 123.699 81.4412 125.53C81.5003 127.419 82.9173 127.596 84.3934 127.596C84.8657 127.655 85.338 127.655 85.8693 127.655H85.8695ZM23.9329 137.988H25.0547C25.1301 137.988 25.2065 137.988 25.2836 137.988H25.2859C26.8992 137.994 28.8335 138 28.8335 135.803C28.8335 133.678 26.9441 133.382 25.1728 133.382C25.0744 133.382 24.976 133.376 24.8776 133.369C24.6807 133.356 24.4839 133.343 24.2871 133.382C23.8931 133.419 23.4554 133.41 23.0099 133.401C21.3194 133.365 19.5169 133.327 19.5636 135.803C19.609 137.982 21.2254 137.962 22.6947 137.944C23.1362 137.939 23.5645 137.933 23.9329 137.988ZM85.8695 137.988H87.6408C89.1759 137.988 90.7701 137.87 90.8291 135.862C90.8291 133.973 89.4121 133.501 87.8179 133.441C87.6628 133.441 87.5014 133.435 87.3377 133.429H87.3374H87.3372H87.337C87.0025 133.415 86.6589 133.402 86.3418 133.441C85.9064 133.496 85.4209 133.484 84.9314 133.473C83.2967 133.435 81.6184 133.395 81.6184 135.803C81.5728 137.947 83.2178 137.941 84.6764 137.937H84.6766C85.1064 137.935 85.5201 137.934 85.8695 137.988ZM87.476 117.244H87.4761C88.9912 117.229 90.5792 117.212 90.5339 114.902C90.4859 112.501 88.6804 112.599 87.0549 112.688C86.6819 112.708 86.3183 112.728 85.9876 112.717C85.7773 112.71 85.5561 112.697 85.3294 112.684C83.5826 112.581 81.507 112.459 81.5593 115.02C81.6052 117.27 83.2227 117.27 84.8283 117.27C85.2871 117.27 85.7448 117.27 86.1647 117.323C86.5633 117.254 87.0163 117.249 87.476 117.244ZM142.433 161.723C119.052 161.664 100.571 143.007 100.689 119.566C100.808 96.5984 119.524 78.2359 142.669 78.2949C165.755 78.354 184.059 97.0708 184 120.57C184 143.184 165.224 161.782 142.433 161.723ZM163.866 114.43V96.7165L163.866 96.6074C163.868 95.2337 163.869 94.0066 161.74 94.2367C151.113 95.5356 140.485 96.7165 129.798 97.8383C127.968 98.0155 127.672 98.9011 127.672 100.554C127.79 108.702 127.849 116.85 127.79 124.998C127.731 129.309 127.613 129.309 123.48 129.249C123.301 129.249 123.126 129.246 122.953 129.242H122.952C122.44 129.231 121.943 129.22 121.414 129.309C117.635 129.781 114.565 132.674 114.388 135.803C114.151 138.992 116.454 141.708 120.351 142.829C126.964 144.778 132.455 140.704 132.514 133.796C132.573 126.12 132.573 118.445 132.514 110.769C132.514 108.761 133.163 107.64 135.289 107.403C141.762 106.708 148.187 105.964 154.651 105.215L156.663 104.983C158.434 104.805 159.261 105.455 159.261 107.226V123.758C159.261 125.353 158.729 125.884 157.135 125.471C154.065 124.644 151.231 125.471 148.751 127.183C145.622 129.309 145.031 132.969 147.157 135.921C149.164 138.637 154.183 140.054 157.903 138.874C162.036 137.634 163.866 135.213 163.925 130.844C163.866 125.412 163.866 119.921 163.866 114.43ZM93.3091 84.9669H75.3599C75.1951 84.9669 75.0193 84.9805 74.8415 84.9943C74.1912 85.0447 73.5125 85.0973 73.2344 84.4945C72.9204 83.8217 73.4242 83.3874 73.8916 82.9846C74.0394 82.8571 74.1836 82.7328 74.2971 82.6052C75.7139 81.1662 77.1473 79.7356 78.5817 78.304L78.582 78.3036L78.5822 78.3035C80.9734 75.9169 83.3676 73.5273 85.6925 71.0917C87.1686 69.5565 88.5266 69.3794 90.357 70.4422C91.1682 70.9019 92.0166 71.312 92.8681 71.7237C93.8758 72.2109 94.8879 72.7002 95.848 73.2763C97.3241 74.1029 98.3278 73.8667 99.2135 72.3906C100.323 70.6587 101.47 68.9392 102.62 67.2151C103.978 65.1774 105.342 63.1331 106.653 61.0543C107.775 59.342 108.483 58.6925 109.782 60.9952C112.853 66.3682 116.1 71.6231 119.406 76.8779C120.823 79.0625 120.41 80.1844 118.285 81.8376C114.86 84.4355 111.317 85.3802 107.125 85.085C103.877 84.8319 100.569 84.8802 97.2649 84.9284L97.2644 84.9284C95.9439 84.9476 94.6241 84.9669 93.3091 84.9669ZM79.9062 65.4824C84.5116 65.4824 87.818 62.2941 87.818 57.8068C87.8771 53.2604 84.3935 49.5997 79.9652 49.4816C75.6551 49.3636 72.1715 52.9652 72.1715 57.6296C72.1715 62.117 75.4779 65.4824 79.9062 65.4824Z" fill="white"/>
</svg>
