<svg width="200" height="200" viewBox="0 0 200 200" fill="none" xmlns="http://www.w3.org/2000/svg">
<path d="M99.9225 200C44.7484 200 0 155.212 0 100.103C0 44.6853 44.7484 -0.051555 100.026 4.45914e-05C155.561 0.0516442 200.103 44.9433 200 100.671C199.845 155.366 154.839 200.052 99.9225 200Z" fill="#B25FCC"/>
<path d="M78.7889 110.516C82.66 112.492 86.61 114.468 90.481 116.365C93.5621 117.867 94.9051 116.997 94.9051 113.599C94.9051 104.272 94.9051 94.9451 94.9051 85.6184C94.9051 76.5287 94.9051 67.5181 94.9051 58.4285C94.9051 58.3494 94.9051 58.1914 94.9051 58.1123C94.7471 49.655 88.427 43.4108 79.974 43.3318C65.4378 43.3318 50.9017 43.3318 36.4445 43.3318C34.9435 43.3318 33.4425 43.4899 32.0205 43.8851C25.5424 45.624 21.1974 51.3149 21.1184 58.1914C21.1184 70.5217 21.1184 82.7729 21.1184 95.0242C21.1184 96.2888 21.2764 97.5534 21.5924 98.8181C23.4094 105.457 29.0185 109.805 36.2075 109.805C49.3217 109.805 62.3568 109.805 75.4709 109.805C76.6559 109.805 77.6829 109.963 78.7889 110.516ZM57.0637 97.8696C53.9827 97.8696 50.8227 97.9486 47.7417 97.8696C40.6316 97.7906 34.8645 92.811 34.7855 85.3022C34.7855 78.6628 34.7855 71.9444 34.7855 65.305C34.7855 59.2979 39.3676 53.528 45.6086 53.528C53.7457 53.4489 61.9618 53.528 70.0989 53.7651C73.8909 53.9232 78.4729 57.9542 78.6309 61.6691C79.1049 70.6007 79.2629 79.4532 78.7889 88.3057C78.4729 93.6805 72.9429 97.5534 67.4128 97.8696C64.0158 98.0277 60.5398 97.8696 57.0637 97.8696Z" fill="white"/>
<path d="M57.0638 67.281C52.7978 67.36 48.9267 71.1539 48.8477 75.5011C48.7687 79.7693 52.7188 83.7213 57.1428 83.8004C61.4088 83.8004 65.4379 79.6903 65.3589 75.4221C65.3589 71.1539 61.3298 67.2019 57.0638 67.281Z" fill="white"/>
<path d="M67.9658 57.0056C64.4108 56.9265 60.8558 57.0056 57.3007 57.0056C55.5627 57.0056 53.7457 57.0056 52.0077 57.0056C50.1117 57.0056 48.2946 57.0056 46.3986 57.0056C42.3696 57.0846 38.8936 60.2462 38.7356 64.2773C38.5776 71.628 38.4986 78.9788 38.6566 86.4086C38.7356 90.5187 42.2906 93.9174 46.3986 93.9965C53.5087 94.0755 60.6188 94.0755 67.7288 93.9965C72.0739 93.9174 75.5499 90.6768 75.6289 86.3295C75.7869 79.0578 75.7869 71.7861 75.6289 64.5144C75.4709 60.3253 71.9949 57.0846 67.9658 57.0056ZM56.9847 87.5151C50.4277 87.3571 45.3716 82.5356 45.2136 75.422C45.0556 68.9407 50.7437 63.4869 57.0637 63.4079C62.5938 63.3288 69.6248 68.1503 68.9138 75.501C69.4668 83.4841 62.3568 87.6732 56.9847 87.5151ZM69.3878 66.8066C68.1238 65.3048 66.8598 64.4354 66.9388 63.5659C67.0178 62.7755 68.2818 61.5899 69.1508 61.4318C69.7828 61.2738 71.2049 62.5384 71.2839 63.3288C71.2839 64.1192 70.3358 65.1467 69.3878 66.8066Z" fill="white"/>
<path d="M178.804 129.644C178.962 119.289 178.883 108.856 178.883 98.5018C178.883 89.017 172.642 82.8518 163.241 82.8518C149.02 82.8518 134.879 82.8518 120.659 82.8518C111.337 82.8518 105.096 89.096 105.096 98.4228C105.096 107.275 105.096 116.207 105.096 125.059C105.096 134.544 105.096 144.029 105.096 153.593C105.096 156.438 106.676 157.308 109.204 156.043C111.89 154.699 114.576 153.514 117.183 152.012C119.395 150.747 122.081 149.246 124.767 148.85C126.11 148.613 163.32 148.376 165.611 148.692C166.559 148.85 167.665 148.85 168.692 148.455C172.642 147.112 175.565 144.582 177.461 140.867C179.12 137.311 178.804 133.438 178.804 129.644ZM151.39 134.465C146.571 136.915 141.278 136.52 135.906 135.493C132.825 134.86 129.428 135.414 126.189 135.572C124.846 135.651 123.424 136.046 121.528 136.362C121.765 133.675 121.686 131.462 122.16 129.486C122.871 126.798 122.555 124.348 121.607 121.74C117.341 109.014 123.345 97 135.669 93.3642C150.047 89.017 163.557 99.1341 163.952 113.282C164.426 123.162 159.923 130.118 151.39 134.465Z" fill="white"/>
<path d="M130.85 99.4501C125.399 103.402 121.923 112.65 124.214 118.973C125.557 122.688 126.9 126.245 125.873 130.276C125.794 130.671 126.821 131.698 127.374 131.698C128.48 131.778 129.586 131.303 130.771 131.224C132.035 131.145 133.378 131.066 134.484 131.461C148.151 136.836 161.345 126.798 161.266 114.152C160.476 111.385 160.081 108.461 158.896 105.931C153.997 95.34 140.093 92.6526 130.85 99.4501ZM152.338 121.897C151.548 123.162 150.284 124.743 149.099 124.822C147.045 124.98 144.675 124.427 142.779 123.557C137.486 121.186 134.168 116.76 132.035 111.464C131.719 110.753 131.877 109.883 131.798 108.856C131.877 108.224 131.719 107.038 132.272 106.564C133.299 105.536 134.721 104.983 135.985 104.192C136.538 106.01 138.197 108.382 137.565 109.567C136.064 112.413 137.17 114.073 138.829 115.89C139.777 116.997 140.883 118.104 142.068 118.973C143.885 120.396 145.702 121.502 147.677 118.973C148.072 118.499 149.81 118.736 150.6 119.289C151.39 119.921 152.575 121.581 152.338 121.897Z" fill="white"/>
<path d="M141.594 156.122C141.199 155.016 140.33 154.541 139.303 154.541C138.276 154.541 137.565 155.174 137.328 156.201C137.17 156.754 137.17 157.308 137.17 157.861C137.17 159.916 137.17 161.971 137.17 164.026C137.091 170.033 132.904 174.222 126.9 174.222C109.283 174.222 91.666 174.143 74.0488 174.301C67.8867 174.38 62.8307 170.033 62.9097 163.157C63.1467 148.455 62.9887 133.754 62.9887 119.052C62.9887 118.499 62.9887 117.946 62.9887 117.392C62.8307 115.891 61.8037 114.942 60.5397 115.021C59.2757 115.1 58.3277 116.128 58.2487 117.63C58.2487 118.025 58.2487 118.42 58.2487 118.815C58.2487 133.754 58.2487 148.771 58.2487 163.71C58.2487 172.642 64.4897 178.965 73.4168 178.965C82.3439 178.965 91.192 178.965 100.119 178.965C109.125 178.965 118.131 179.044 127.137 178.965C133.457 178.886 137.96 175.961 140.646 170.27C142.7 165.844 141.91 161.181 141.752 156.596C141.673 156.359 141.594 156.28 141.594 156.122Z" fill="white"/>
<path d="M60.303 38.194C61.725 38.3521 62.752 37.2456 62.989 35.2696C63.542 29.5787 67.4921 25.9428 73.1801 25.9428C91.0343 25.9428 108.967 25.9428 126.822 25.9428C132.984 25.9428 137.092 30.1319 137.092 36.2971C137.092 48.8645 137.092 61.3529 137.092 73.9203C137.092 74.5526 137.013 75.1849 137.171 75.7382C137.487 77.0028 138.277 77.7932 139.62 77.7142C140.884 77.6352 141.595 76.8448 141.832 75.5801C141.911 75.1059 141.832 74.5526 141.832 74.0783C141.832 61.59 141.832 49.1016 141.832 36.6132C141.832 27.3655 135.512 21.1213 126.269 21.1213C117.579 21.1213 108.809 21.1213 100.119 21.1213C91.0343 21.1213 81.9492 21.1213 72.7851 21.1213C64.9641 21.2004 58.644 27.2074 58.17 34.7953C58.091 36.7713 58.802 38.036 60.303 38.194Z" fill="white"/>
<path d="M97.1962 132.252C96.9592 132.252 96.6432 132.252 96.4062 132.252C88.1111 132.252 79.816 132.252 71.5999 132.252C70.9679 132.252 70.4149 132.252 69.7829 132.41C68.7559 132.647 68.2029 133.438 68.1239 134.465C68.0449 135.572 68.5979 136.362 69.6249 136.757C70.1779 136.994 70.8099 136.994 71.4419 136.994C75.55 136.994 79.737 136.994 83.845 136.994C86.1361 136.994 88.3481 136.994 90.6391 136.994C92.8511 136.994 95.0632 136.994 97.2752 136.994C98.9342 136.915 99.8822 135.967 99.8822 134.623C99.8032 133.2 98.8552 132.331 97.1962 132.252Z" fill="white"/>
<path d="M128.954 43.3318C120.264 43.3318 111.653 43.3318 102.963 43.3318C102.568 43.3318 102.173 43.4108 101.857 43.4899C100.751 43.806 100.198 44.5174 100.198 45.703C100.198 46.8096 100.751 47.6 101.857 47.9161C102.41 48.0742 103.042 48.0742 103.674 48.0742C107.782 48.0742 111.969 48.0742 116.077 48.0742C120.343 48.0742 124.688 48.0742 128.954 48.0742C130.85 48.0742 131.956 47.1257 131.956 45.703C131.956 44.2803 130.85 43.3318 128.954 43.3318Z" fill="white"/>
<path d="M129.033 67.8343C130.851 67.8343 131.878 66.9649 131.957 65.6212C132.036 64.1194 130.93 63.25 129.033 63.25C120.343 63.25 111.732 63.25 103.042 63.25C101.146 63.25 100.119 64.1194 100.198 65.7003C100.277 67.123 101.225 67.9134 103.042 67.9134C107.308 67.9134 111.653 67.9134 115.919 67.9134C120.343 67.8343 124.688 67.8343 129.033 67.8343Z" fill="white"/>
<path d="M98.6182 122.688C97.9072 122.293 97.1172 122.372 96.3272 122.372C90.7181 122.372 85.0301 122.372 79.421 122.372C76.498 122.372 73.575 122.372 70.6519 122.372C68.9929 122.372 68.0449 123.32 68.0449 124.743C68.0449 126.166 69.0719 127.114 70.8889 127.114C75.234 127.114 79.579 127.114 84.0031 127.114C88.4271 127.114 92.8512 127.114 97.2752 127.114C98.6182 127.114 99.5662 126.561 99.8822 125.217C100.04 124.111 99.6452 123.241 98.6182 122.688Z" fill="white"/>
<path d="M104.069 57.9541C112.127 57.9541 120.185 57.9541 128.244 57.9541C128.797 57.9541 129.35 57.9541 129.903 57.8751C131.167 57.717 131.878 56.9266 131.878 55.662C131.878 54.3183 131.088 53.5279 129.745 53.3698C129.271 53.2907 128.718 53.2907 128.244 53.2907C124.135 53.2907 120.106 53.2907 115.998 53.2907C113.707 53.2907 111.337 53.2907 109.046 53.2907C106.834 53.2907 104.622 53.2117 102.41 53.2907C100.988 53.3698 100.119 54.0811 100.119 55.5829C100.119 57.0847 100.988 57.796 102.41 57.9541C102.963 57.9541 103.516 57.9541 104.069 57.9541Z" fill="white"/>
<path d="M97.5122 146.795C98.8552 146.716 99.8032 146.005 99.8032 144.503C99.8032 143.16 98.8552 142.211 97.3542 142.132C97.1172 142.132 96.8802 142.132 96.7222 142.132C88.1901 142.132 79.737 142.132 71.205 142.132C70.8099 142.132 70.4149 142.132 70.0199 142.211C68.8349 142.527 68.0449 143.239 68.0449 144.503C68.0449 145.768 68.7559 146.558 70.0199 146.795C70.6519 146.874 71.2049 146.874 71.837 146.874C75.866 146.874 79.895 146.874 83.9241 146.874C86.2941 146.874 88.6641 146.874 91.0341 146.874C93.2462 146.795 95.3792 146.874 97.5122 146.795Z" fill="white"/>
<path d="M102.963 73.0507C101.146 73.0507 100.198 73.9202 100.198 75.4219C100.198 76.8447 101.225 77.7141 103.042 77.7141C105.333 77.7141 107.703 77.7141 109.994 77.7141C112.285 77.7141 114.497 77.7141 116.788 77.7141C118.605 77.7141 119.632 76.8447 119.632 75.4219C119.711 73.9992 118.605 73.0507 116.867 73.0507C112.206 72.9717 107.545 72.9717 102.963 73.0507Z" fill="white"/>
<path d="M84.7932 156.676C86.5312 156.676 87.5582 155.727 87.5582 154.304C87.4792 152.882 86.5312 152.012 84.8722 152.012C80.2111 152.012 75.4711 152.012 70.81 152.012C69.151 152.012 68.203 152.882 68.124 154.304C68.124 155.727 69.072 156.597 70.731 156.676C73.0221 156.676 75.3921 156.676 77.6831 156.676C80.0531 156.676 82.4232 156.676 84.7932 156.676Z" fill="white"/>
<path d="M104.78 33.2937C104.701 30.6854 102.647 28.6304 100.04 28.6304C97.2751 28.6304 95.2211 30.7645 95.2211 33.4518C95.2211 36.1392 97.4331 38.2733 100.119 38.2733C102.726 38.1942 104.859 35.9811 104.78 33.2937Z" fill="white"/>
</svg>
