<svg width="300" height="54" viewBox="0 0 300 54" fill="none" xmlns="http://www.w3.org/2000/svg">
<path d="M101.868 15.1071H84.016V24.0216H99.9954V29.0245H84.016V38.1235H102.431V43.1264H78.5043V10.1042H101.868V15.1071Z" fill="white"/>
<path d="M137.511 43.1264H132.091L114.665 19.4491V43.1264H109.154V10.1042H114.574L132.091 33.8353V10.1042H137.511V43.1264Z" fill="white"/>
<path d="M151.664 10.1042H146.152V43.1264H151.664V10.1042Z" fill="white"/>
<path d="M182.648 26.8958H187.459V39.0687C185.777 40.3598 183.79 41.3973 181.498 42.1811C179.207 42.965 176.961 43.3569 174.746 43.3569C169.919 43.3569 165.846 41.7431 162.527 38.5231C159.208 35.3031 157.548 31.33 157.548 26.6114C157.548 21.8929 159.231 17.9428 162.596 14.7459C165.961 11.5566 170.117 9.95813 175.073 9.95813C177.38 9.95813 179.649 10.3731 181.871 11.2108C184.102 12.0408 186.02 13.1704 187.642 14.5845L184.513 18.6882C181.833 16.1753 178.689 14.9149 175.073 14.9149C171.739 14.9149 168.922 16.0446 166.615 18.3117C164.309 20.5787 163.159 23.3453 163.159 26.6114C163.159 29.8775 164.316 32.6979 166.638 34.9573C168.96 37.2243 171.784 38.354 175.119 38.354C177.639 38.354 180.151 37.6009 182.64 36.087V26.8881L182.648 26.8958Z" fill="white"/>
<path d="M229.832 43.1264H224.739L224.694 18.4577L214.371 39.6835H210.77L200.439 18.4577V43.1264H195.255V10.1042H201.794L212.589 32.037L223.339 10.1042H229.832V43.1264Z" fill="#785AA2"/>
<path d="M257.49 30.7152L251.323 16.0446L245.157 30.7152H257.49ZM259.591 35.6643H243.094L239.965 43.1187H234.217L248.659 10.0965H254.315L268.612 43.1187H262.728L259.599 35.6643H259.591Z" fill="#785AA2"/>
<path d="M288.086 25.9582L300 43.1264H293.415L284.584 30.6691L275.799 43.1264H269.351L281.265 26.1888L270.196 10.1042H276.591L284.584 21.5701L292.623 10.1042H299.071L288.086 25.9582Z" fill="#785AA2"/>
<path d="M20.5343 12.2552L1.61105 22.048C1.14789 22.2538 0.73285 22.5867 0.432099 23.0466C-0.367901 24.2874 -0.0250438 25.9336 1.19601 26.7326L24.0471 41.676L32.5464 29.6377L20.5343 12.2491V12.2552ZM47.1869 9.0353L47.4576 2.8013H47.4456C47.4937 1.87528 47.0847 0.955317 46.2666 0.422704C45.5328 -0.0554373 44.6486 -0.115961 43.8907 0.180607L43.8606 0.192712C43.7163 0.253236 43.5779 0.325865 43.4456 0.404547L26.5975 9.12003L36.811 23.7245L47.1388 9.04135H47.1869V9.0353ZM46.02 36.1078L46.6396 21.6727L41.3103 29.3412L46.02 36.1078ZM45.3945 50.6638L45.5268 47.6376L36.811 35.3815L29.7253 45.3922L41.3103 52.9637C42.5313 53.7627 44.1674 53.4056 44.9674 52.1648C45.2682 51.6988 45.4065 51.1722 45.4005 50.6578L45.3945 50.6638Z" fill="#785AA2"/>
</svg>
