<svg width="200" height="200" viewBox="0 0 200 200" fill="none" xmlns="http://www.w3.org/2000/svg">
<path d="M99.9225 200C44.7484 200 0 155.212 0 100.103C0 44.6853 44.7484 -0.051555 100.026 4.45914e-05C155.561 0.0516442 200.103 44.9433 200 100.671C199.845 155.366 154.839 200.052 99.9225 200Z" fill="#B25FCC"/>
<path d="M27.6128 86.9968C47.6386 96.8007 68.4902 102.528 90.7869 103.715C91.0966 106.553 90.1676 110.062 93.2127 111.661C95.1224 112.642 97.6514 112.797 99.8708 112.797C103.639 112.797 104.826 110.681 105.497 103.715C128.826 102.528 150.916 96.2847 172.18 85.81C172.232 86.9452 172.335 87.7192 172.335 88.5448C172.335 108.669 172.284 128.792 172.387 148.916C172.438 157.069 166.709 163.209 158.297 163.158C119.174 162.9 79.9998 162.951 40.8773 163.158C32.3612 163.209 27.3547 156.295 27.4063 149.948C27.458 129.566 27.4063 109.185 27.458 88.8028C27.5096 88.3384 27.5612 87.8224 27.6128 86.9968ZM106.168 98.6583C106.942 98.6583 107.716 98.6583 108.49 98.6067C128.98 97.2135 148.284 91.5892 166.968 83.2301C171.355 81.2693 172.851 78.9989 172.542 74.2517C172.026 65.7378 167.071 60.5263 158.503 60.5263C144.516 60.5263 130.529 60.5263 116.49 60.5263C99.1482 60.5263 81.8063 60.5263 64.4644 60.5263C56.4644 60.5263 48.4644 60.5263 40.4644 60.5263C33.3418 60.5263 27.8709 65.7378 27.5612 72.9101C27.458 75.0773 27.6128 77.1929 27.5096 79.3601C27.4063 80.9597 27.9741 81.7853 29.4192 82.5077C45.4708 90.5056 62.3482 95.7688 80.1547 97.9359C83.6644 98.3487 87.2256 98.5035 90.9934 98.8131C90.9934 95.7172 90.9934 93.1888 90.9934 90.6088C90.9934 85.81 93.0063 83.9525 98.0127 83.9525C103.226 83.9525 105.342 85.81 105.393 90.6088C105.445 93.2404 105.393 95.872 105.393 98.4003C105.858 98.5551 106.013 98.6583 106.168 98.6583ZM127.122 56.6047C127.122 54.3343 127.174 52.2187 127.122 50.0515C126.968 41.6408 121.135 35.8617 112.774 35.8101C103.174 35.7585 93.5224 35.8617 83.9224 35.8101C79.3805 35.8101 75.7676 37.5644 73.0321 41.1248C69.4192 45.7688 69.8321 51.1867 70.1418 56.6047C72.2579 56.6047 74.116 56.6047 76.2837 56.6047C76.2837 54.5407 76.2321 52.5799 76.2837 50.6191C76.4386 45.3044 79.2257 42.5696 84.4902 42.5696C93.9353 42.5696 103.38 42.5696 112.826 42.5696C117.832 42.5696 120.722 45.5108 120.826 50.5675C120.877 52.5283 120.826 54.4891 120.826 56.5531C123.2 56.6047 125.058 56.6047 127.122 56.6047Z" fill="white"/>
</svg>
