<svg width="200" height="200" viewBox="0 0 200 200" fill="none" xmlns="http://www.w3.org/2000/svg">
<path d="M99.9225 200C44.7484 200 0 155.212 0 100.103C0 44.6853 44.7484 -0.051555 100.026 4.45914e-05C155.561 0.0516442 200.103 44.9433 200 100.671C199.845 155.366 154.839 200.052 99.9225 200Z" fill="#B25FCC"/>
<path fill-rule="evenodd" clip-rule="evenodd" d="M86.4844 55.3468C86.1081 56.1877 85.7161 57.0638 85.3 57.9999C85.75 57.8499 86.05 57.7749 86.25 57.7249C86.4501 57.6749 86.55 57.6499 86.6001 57.5999C93.6001 54.6999 100.6 51.5999 107.3 48.0999C108.5 47.4999 109.1 47.5999 109.7 48.7999C112.4 54.0999 114.8 59.3999 116.8 64.9999C122.6 81.5999 125.1 98.5999 122.7 116.1C122.6 117.1 122.9 117.6 123.6 118.1C128.9 122.3 131.7 127.9 132.5 134.6C132.5 134.748 132.526 134.914 132.553 135.082C132.616 135.48 132.681 135.889 132.4 136.1C131.93 136.413 131.583 135.991 131.262 135.6C131.174 135.492 131.087 135.387 131 135.3C128.3 132.7 125.4 130.2 122.2 128.2C121 127.4 120.4 127.5 119.9 129C117.8 135.8 114.8 142.2 110.5 148C109.8 149 109.8 149.5 111.2 149.7C116 150.4 120.7 150.3 125.4 149.1C136.8 146.1 145.8 139.5 153.5 130.9C163.8 119.4 170.4 105.8 174.5 90.9999C176.8 82.8999 178 74.6999 178.5 66.2999C178.6 65.0999 178.3 64.2999 176.8 64.1999C169.9 63.8999 163.1 63.1999 156.3 62.3999C146.3 61.1999 136.4 59.0999 127 55.1999C116.5 50.8999 106.7 45.3999 97 39.4999C95.7001 38.6999 95 38.7999 94.2 40.1999C93.9835 40.5789 93.7669 40.9567 93.5507 41.3339C91.7704 44.4398 90.016 47.5006 88.5 50.7999C87.8468 52.3024 87.1935 53.7623 86.4844 55.3468ZM160.6 97.0999C156.6 100.4 152.3 103.2 148.3 103.3C141.4 103.3 137 99.9999 134.8 94.2999C134.3 92.6999 133.9 91.0999 133.7 89.3999C133.681 89.3042 133.654 89.2085 133.628 89.1141C133.518 88.7158 133.415 88.3425 133.9 88.0999C134.214 87.8641 134.529 88.1225 134.795 88.3411C134.867 88.4006 134.936 88.4571 135 88.4999C140 91.9999 145.6 93.8999 151.6 94.9999C154.4 95.4999 157.2 95.8999 160 95.8999C160.068 95.8999 160.135 95.897 160.202 95.8942C160.53 95.8804 160.834 95.8675 161 96.1999C161.2 96.5999 160.9 96.8999 160.6 97.0999ZM76.8 65.0998C63.9 69.3998 50.5 70.2998 36.4 70.3998C32.8 70.4998 28.5 70.2998 24.2 69.9998C22.6 69.8998 22 70.5998 22 72.1998C22 78.0998 22 83.9998 22.7 89.8998C24.3 104.3 28.3 118 35.5 130.5C41.6 141.2 49.4 150.2 60.2 156.3C67.6 160.6 75.5 162.5 84.1 161.1C94.6 159.4 102.4 153.6 108.4 145.1C116 134.4 119.2 122.2 120 109.3C121.2 90.0998 117.1 71.8998 108.8 54.5998C107.6 52.0998 107.6 52.0998 105.1 53.2998C95.9 57.7998 86.5 61.8998 76.8 65.0998ZM79.0224 145.185C78.9473 145.19 78.8732 145.195 78.8 145.2C70.3 144.9 64 141.3 59.3 134.9C59.2422 134.823 59.1733 134.742 59.1019 134.658C58.8023 134.307 58.4578 133.904 58.7 133.5C59.0535 132.97 59.6413 133.22 60.1183 133.424C60.1811 133.451 60.2419 133.477 60.3 133.5C69.5 136.3 78.6 135.9 87.6 132.2C91.5 130.6 94.9 128 98.2 125.4C98.3065 125.32 98.4131 125.212 98.5215 125.101C98.8202 124.798 99.1332 124.48 99.5 124.7C99.9119 124.947 99.7809 125.466 99.666 125.92C99.6414 126.017 99.6176 126.112 99.6 126.2C97.6 135.1 92.6 141.4 83.9 144.4C82.283 144.971 80.4849 145.089 79.0224 145.185ZM63.2 105.2H59.6C52.4 105 45.7 107 39.3 110.1C38.8 110.4 38.3 110.7 37.7 110.9C37.1 111.1 36.8 111 36.9 110.2C37.6 104.7 44.1 97.7998 49.5 96.7998C54.6 95.8998 61.9 99.6998 63.9 104.3C64.3 105.1 63.9 105.2 63.2 105.2ZM91.4 97.5998C88.5 98.4998 85.8 99.6998 83.1 101.3C82.8091 100.209 83.0472 99.3822 83.2756 98.5893C83.3612 98.2922 83.4455 97.9997 83.5 97.6998C86.5 87.7998 95.3 84.3998 104.1 89.7998C106.1 90.9998 107.8 92.4998 109.4 94.0998C109.486 94.2142 109.596 94.3205 109.705 94.4256C109.978 94.6878 110.243 94.9429 110.1 95.2998C109.945 95.841 109.492 95.7844 109.063 95.7309C108.937 95.7152 108.813 95.6998 108.7 95.6998C102.8 95.4998 97.1 95.8998 91.4 97.5998Z" fill="white"/>
</svg>
