<svg width="648" height="505" viewBox="0 0 648 505" fill="none" xmlns="http://www.w3.org/2000/svg">
<rect x="72" y="275" width="634" height="84" fill="#B25FCC"/>
<path d="M22.989 68.4378C25.6587 72.5114 27.4385 75.6346 28.3284 77.943C28.4767 78.4862 28.4767 79.0293 28.1801 79.4367C27.8835 79.844 27.4385 80.1156 26.8453 80.2514C26.252 80.3872 25.6587 80.3872 25.2138 80.1156C24.6205 79.844 24.3239 79.4367 24.0272 78.8935C23.2857 76.7209 21.8025 74.1409 19.7261 71.0177C17.0564 72.6472 14.3867 73.0546 11.5687 72.3756C7.56413 71.2893 4.59781 68.302 2.66969 63.4136C0.889898 58.6609 0 52.2788 0 44.4031C0 36.2557 0.889898 29.7378 2.66969 24.9852C5.04275 18.6031 8.75066 15.0726 13.6451 14.5294C13.9417 14.5294 14.3867 14.5294 14.8316 14.5294C14.9799 14.5294 15.1283 14.5294 15.2766 14.5294H15.4249H15.5732C17.353 14.801 18.9845 15.48 20.3193 16.5663C22.3958 18.3315 24.0272 20.64 25.3621 23.7631C26.252 26.0715 26.9936 28.9231 27.5868 32.3178C28.4767 38.2925 28.7734 44.6746 28.1801 51.3283C27.7352 57.8462 26.5486 62.7346 24.7688 65.9935C24.3239 66.8083 23.7306 67.623 22.989 68.4378ZM20.616 64.7715C21.5059 63.2778 22.2474 61.5125 22.6924 59.2041C23.434 55.9451 23.8789 51.8715 24.0272 46.8473C24.1756 40.1936 23.7306 34.6262 22.6924 30.1452C22.5441 29.4663 22.3958 28.9231 22.2474 28.5157C22.0991 27.8368 21.9508 27.1578 21.6542 26.6147C21.2092 25.121 20.616 23.8989 20.171 22.8126C18.6879 19.961 16.6114 18.4673 14.0901 18.4673C11.5687 18.6031 9.64056 20.0968 8.00908 22.9484C7.41582 24.0347 6.97087 25.2568 6.52592 26.7505C6.22929 27.701 5.93265 28.9231 5.63602 30.281C4.59781 35.1694 4.30117 40.7368 4.44949 46.8473C4.74612 53.6367 5.63602 58.7967 7.11918 62.463C8.00908 64.6357 9.19561 66.1293 10.3821 67.3514C12.1619 68.8451 14.09 69.2525 16.1665 68.4378C16.6114 68.302 17.0564 68.0304 17.5013 67.7588C14.6833 63.5493 13.0518 60.0188 12.4586 57.0315C12.3103 56.4883 12.4586 55.9451 12.7552 55.402C13.0518 54.9946 13.4968 54.723 14.0901 54.5873C14.6833 54.4515 15.1283 54.4515 15.5732 54.723C16.1665 54.9946 16.4631 55.402 16.6114 55.9451C17.353 58.6609 18.5395 61.5125 20.616 64.7715ZM52.8006 71.6967C49.8343 73.1904 46.868 73.0546 44.1983 71.2893C41.9735 69.7956 40.1937 67.4872 39.0072 64.3641C37.6723 60.8336 36.7824 56.6241 36.3375 51.8715C36.0409 48.8841 35.8925 44.5389 35.8925 39.1073C35.8925 36.5273 36.0409 32.7252 36.1892 27.701L36.3375 21.9979C36.3375 19.8252 36.4858 17.9242 36.4858 16.2947C36.4858 15.6158 36.7824 15.2084 37.2274 14.801C37.6723 14.5294 38.1173 14.2579 38.7106 14.2579C39.3038 14.2579 39.7488 14.3937 40.1937 14.801C40.6387 15.2084 40.9353 15.6158 40.9353 16.2947C40.9353 18.06 40.9353 19.961 40.787 22.2694L40.6387 28.2442C40.4904 33.4041 40.342 37.342 40.4904 40.1936C40.4904 45.6252 40.787 50.242 41.2319 53.9083C41.5286 56.2167 41.8252 57.982 42.1218 59.3399C42.5668 61.3767 43.1601 63.142 43.9016 64.6357C44.4949 65.8578 45.2365 66.8083 45.8297 67.4872C46.7196 68.4378 47.9062 68.8451 49.0927 68.7093C50.1309 68.5735 51.1691 68.0304 52.059 67.0799C52.8006 66.2651 53.3939 65.3146 53.8388 64.0925C55.322 60.562 56.2119 56.4883 56.6568 51.7357C56.8052 49.8346 56.9535 47.662 56.9535 45.3536V42.2304V39.1073C56.9535 36.5273 56.9535 32.7252 56.6568 27.701L56.5085 21.9979C56.5085 19.8252 56.3602 18.06 56.3602 16.2947C56.3602 15.6158 56.5085 15.2084 56.9535 14.801C57.3984 14.5294 57.8434 14.2579 58.4366 14.2579C59.0299 14.2579 59.6232 14.3937 59.9198 14.801C60.3647 15.2084 60.5131 15.6158 60.5131 16.2947C60.5131 18.7389 60.6614 21.7263 60.8097 25.5284L60.958 30.1452L61.1063 34.762C61.2546 42.0947 61.1063 48.2052 60.5131 53.2294L60.8097 54.4515L60.6614 55.6736C60.5131 56.6241 60.3647 57.4388 60.2164 58.2536C59.9198 60.2904 59.4748 62.0557 59.0299 63.5493C57.695 67.623 55.6186 70.3388 52.8006 71.6967ZM72.9716 70.7462C72.9716 71.4251 72.675 71.8325 72.23 72.2399C71.7851 72.5114 71.3401 72.783 70.7469 72.783C70.1536 72.783 69.7087 72.6472 69.2637 72.2399C68.8188 71.8325 68.5221 71.4251 68.5221 70.7462V16.1589C68.5221 15.6158 68.8188 15.0726 69.2637 14.6652C69.7087 14.3937 70.1536 14.2579 70.7469 14.2579C71.3401 14.2579 71.7851 14.3937 72.23 14.801C72.675 15.2084 72.9716 15.6158 72.9716 16.2947V70.7462ZM80.2391 16.7021C80.0908 16.1589 80.2391 15.6158 80.5358 15.0726C80.9807 14.5294 81.574 14.2579 82.3156 14.2579H98.3337C99.0753 14.2579 99.5202 14.5294 99.9652 14.9368C100.262 15.3442 100.558 15.7515 100.558 16.2947C100.558 16.8379 100.41 17.2452 99.9652 17.6526C99.5202 18.06 99.0753 18.3315 98.3337 18.3315H84.5403V42.0947H98.3337C99.0753 42.0947 99.5202 42.3662 99.9652 42.7736C100.262 43.181 100.558 43.5883 100.558 44.1315C100.558 44.6746 100.41 45.082 99.9652 45.4894C99.5202 45.8967 99.0753 46.1683 98.3337 46.1683H84.5403V68.7093H98.3337C99.0753 68.7093 99.5202 68.9809 99.9652 69.3883C100.262 69.7956 100.558 70.203 100.558 70.7462C100.558 71.2893 100.41 71.6967 99.9652 72.1041C99.5202 72.5114 99.0753 72.783 98.3337 72.783H82.3156C81.574 72.783 81.129 72.5114 80.6841 72.1041C80.3875 71.6967 80.0908 71.2893 80.0908 70.7462V16.7021H80.2391ZM93.291 0.678946C93.7359 0.271578 94.3292 0 94.9224 0C95.5157 0 95.9607 0.271578 96.4056 0.543157C96.8506 0.950524 96.9989 1.35789 97.1472 1.90105C97.2955 2.44421 96.9989 2.98736 96.5539 3.53052C96.2573 3.93789 95.8123 4.34525 95.3674 4.88841L94.3292 6.38209C93.4393 7.73998 92.6977 8.69051 92.1044 9.23367C91.6595 9.77682 91.2145 9.91261 90.6213 9.91261C90.028 9.91261 89.5831 9.64103 89.1381 9.23367C88.6932 8.8263 88.3965 8.41893 88.3965 7.87577C88.3965 7.33262 88.5448 6.78946 88.9898 6.2463C89.2864 5.83894 89.7314 5.43157 90.028 4.88841L91.0662 3.39473C92.1044 2.30842 92.6977 1.35789 93.291 0.678946ZM108.123 17.1094C107.529 16.1589 107.826 15.3442 109.012 14.6652C110.199 13.9863 111.237 14.2579 112.127 15.2084C114.352 17.9242 116.28 22.1336 118.06 27.8368C118.653 30.0094 119.395 32.4536 120.285 35.5768L121.323 39.3789L122.361 43.181L123.399 47.2546L124.586 51.3283C125.476 54.4515 126.365 57.1673 127.107 59.4757L127.7 61.1051V15.8873C127.7 15.2084 127.997 14.801 128.442 14.3937C128.887 14.1221 129.332 13.8505 129.925 13.8505C130.518 13.8505 130.963 13.9863 131.408 14.3937C131.853 14.801 132.15 15.2084 132.15 15.8873V70.6104C132.15 71.6967 131.557 72.3756 130.37 72.5114C129.48 72.783 128.887 72.6472 128.145 71.9683C127.107 70.882 126.069 69.3883 125.179 67.3514C124.882 66.6725 124.586 65.722 124.141 64.7715L123.696 63.4136L123.251 62.1914C122.361 59.883 121.619 57.1673 120.729 54.1799L119.543 50.1062L118.505 46.0325L117.467 42.0947L116.28 38.021C115.39 34.762 114.649 32.0462 113.907 29.7378C113.314 27.8368 112.869 26.3431 112.424 25.2568V70.4746C112.424 71.1535 112.127 71.5609 111.682 71.9683C111.237 72.2399 110.792 72.5114 110.199 72.5114C109.606 72.5114 109.161 72.3756 108.716 71.9683C108.271 71.5609 107.974 71.1535 107.974 70.4746V17.1094H108.123ZM14.0901 225.274C13.7934 226.768 12.9035 227.854 11.5687 228.397C10.3821 228.941 9.0473 229.076 7.71245 228.669C6.22929 228.397 5.04276 227.583 4.30117 226.496C3.41128 225.41 3.26296 224.052 3.70791 222.558C6.52592 211.288 9.0473 198.524 11.5687 184.266C13.2002 174.489 15.1283 161.182 17.353 144.344L20.0227 124.247C21.0609 116.779 21.9508 110.125 22.8407 104.286L22.989 102.113L23.2857 99.9408C23.434 98.0398 23.7306 96.4103 23.8789 95.1882C24.6205 91.5219 25.807 88.6703 27.4385 86.6335C29.5149 84.0535 31.888 83.7819 34.4094 85.683C36.4858 87.1767 37.969 89.3493 38.8589 92.0651C41.0836 100.077 43.1601 109.853 44.7915 121.124C45.2365 124.79 45.9781 129.814 46.7196 135.925L47.7579 143.258L48.7961 150.454C51.7624 171.638 54.877 196.215 58.2883 224.188C58.4366 225.682 58.14 226.904 57.1018 227.718C56.2119 228.533 54.877 228.941 53.5422 228.941C49.8343 228.941 47.9062 227.311 47.4612 224.052L47.3129 222.966L44.6432 201.647H19.4294C17.798 210.202 16.0182 218.077 14.0901 225.274ZM29.2183 137.826C26.1037 161.453 23.434 179.513 21.3575 191.734H43.605C41.5286 175.847 39.6005 161.589 37.8207 148.961C35.7442 134.431 33.9644 122.753 32.4813 113.927V113.656L30.8498 125.877L29.2183 137.826ZM87.3583 130.358C90.1763 137.283 95.9607 145.023 104.86 153.578L110.199 158.738C112.275 160.774 114.055 162.54 115.538 164.033C119.543 167.971 122.658 171.773 124.882 175.44C130.37 183.723 133.188 192.821 133.485 202.462C133.781 214.14 129.48 222.015 120.581 226.225C112.275 230.298 103.821 230.163 95.2191 225.817C87.3583 221.88 81.7223 215.769 78.311 207.622C77.7178 206.264 77.8661 204.906 78.4593 203.955C79.0526 203.005 80.2391 202.326 81.574 201.919C83.0571 201.647 84.392 201.647 85.5785 202.054C87.0617 202.597 88.0999 203.684 88.6932 205.042C90.3246 209.115 92.9943 212.374 96.7022 215.09C100.707 217.942 104.86 219.3 109.457 219.028C114.352 218.756 117.911 216.312 120.136 211.831C121.768 208.165 122.509 203.82 122.064 198.795C121.471 190.648 117.615 182.772 110.644 174.896C108.568 172.588 105.305 169.329 101.003 165.12L95.9607 160.231C94.0325 158.466 92.4011 156.837 91.0662 155.343C81.7223 145.023 76.0863 134.431 74.3065 123.568C73.4166 117.593 73.4166 112.026 74.6031 106.595C76.0863 100.348 78.9043 95.4598 83.0571 92.0651C87.6549 88.1272 92.9943 85.8188 98.927 84.8682C105.008 83.9177 110.941 84.5967 116.577 87.0409C125.327 90.9788 130.815 98.8545 132.891 110.668C133.04 112.162 132.743 113.52 131.853 114.606C131.112 115.692 129.925 116.371 128.442 116.779C127.107 117.05 125.772 117.05 124.586 116.507C123.399 115.964 122.658 114.878 122.361 113.248C122.064 111.619 121.768 110.397 121.619 109.31C121.323 107.817 120.878 106.459 120.433 105.237C119.395 102.249 117.763 99.9408 115.983 98.4472C113.462 96.4103 110.199 95.1882 106.491 94.5093C102.487 93.9661 99.0753 94.3735 96.2573 95.7314C90.028 98.8545 86.4684 104.015 85.1336 111.076C84.0954 117.322 84.8369 123.704 87.3583 130.358ZM151.728 90.4356C151.431 88.9419 151.728 87.584 152.617 86.3619C153.656 85.004 155.139 84.3251 157.067 84.3251H196.816C198.447 84.3251 199.782 84.8682 200.82 85.9546C201.71 86.9051 202.155 87.9914 202.155 89.3493C202.155 90.7072 201.71 91.7935 200.82 92.744C199.782 93.8303 198.447 94.3735 196.816 94.3735H162.703V153.034H196.816C198.447 153.034 199.782 153.578 200.82 154.664C201.71 155.614 202.155 156.701 202.155 158.059C202.155 159.417 201.71 160.503 200.82 161.453C199.782 162.54 198.447 163.083 196.816 163.083H162.703V218.892H196.816C198.447 218.892 199.782 219.435 200.82 220.386C201.71 221.336 202.155 222.423 202.155 223.781C202.155 225.138 201.71 226.225 200.82 227.175C199.782 228.262 198.447 228.805 196.816 228.805H157.215C155.584 228.805 154.101 228.262 153.211 227.04C152.321 226.089 151.876 225.003 151.876 223.781V90.4356H151.728ZM223.661 130.358C226.479 137.283 232.263 145.023 241.162 153.578L246.502 158.738C248.578 160.774 250.358 162.54 251.841 164.033C255.846 167.971 258.96 171.773 261.185 175.44C266.673 183.723 269.491 192.821 269.787 202.462C270.084 214.14 265.783 222.015 256.884 226.225C248.578 230.298 240.124 230.163 231.522 225.817C223.661 221.88 218.025 215.769 214.614 207.622C214.02 206.264 214.169 204.906 214.762 203.955C215.355 203.005 216.542 202.326 217.877 201.919C219.36 201.647 220.695 201.647 221.881 202.054C223.364 202.597 224.403 203.684 224.996 205.042C226.627 209.115 229.297 212.374 233.005 215.09C237.009 217.942 241.162 219.3 245.76 219.028C250.655 218.756 254.214 216.312 256.439 211.831C258.07 208.165 258.812 203.82 258.367 198.795C257.774 190.648 253.918 182.772 246.947 174.896C244.87 172.588 241.607 169.329 237.306 165.12L232.263 160.231C230.335 158.466 228.704 156.837 227.369 155.343C218.025 145.023 212.389 134.431 210.609 123.568C209.719 117.593 209.719 112.026 210.906 106.595C212.389 100.348 215.207 95.4598 219.36 92.0651C223.958 88.1272 229.297 85.8188 235.23 84.8682C241.311 83.9177 247.243 84.5967 252.879 87.0409C261.63 90.9788 267.118 98.8545 269.194 110.668C269.342 112.162 269.046 113.52 268.156 114.606C267.414 115.692 266.228 116.371 264.745 116.779C263.41 117.05 262.075 117.05 260.888 116.507C259.702 115.964 258.96 114.878 258.664 113.248C258.367 111.619 258.07 110.397 257.922 109.31C257.625 107.817 257.181 106.459 256.736 105.237C255.697 102.249 254.066 99.9408 252.286 98.4472C249.765 96.4103 246.502 95.1882 242.794 94.5093C238.789 93.9661 235.378 94.3735 232.56 95.7314C226.331 98.8545 222.771 104.015 221.436 111.076C220.398 117.322 221.14 123.704 223.661 130.358ZM298.857 224.188C298.857 225.682 298.264 226.904 297.226 227.854C296.188 228.669 295.001 229.076 293.518 229.076C292.035 229.076 290.848 228.669 289.81 227.854C288.624 226.904 288.03 225.682 288.03 224.188V89.0777C288.03 87.584 288.624 86.3619 289.81 85.4114C290.848 84.7325 292.035 84.3251 293.518 84.3251C295.001 84.3251 296.188 84.7325 297.226 85.5472C298.264 86.3619 298.857 87.584 298.857 89.2135V224.188ZM317.397 91.3861C315.765 88.9419 316.507 86.9051 319.622 85.4114C322.736 83.9177 325.258 84.3251 327.186 86.7693V86.9051L327.334 87.0409C332.822 93.8303 337.568 104.286 342.017 118.272C343.649 123.568 345.429 129.814 347.505 137.283L350.027 146.788L352.548 156.293L355.366 166.478L358.184 176.662C360.409 184.402 362.485 191.055 364.413 196.759L365.896 200.832V88.6703C365.896 87.1767 366.49 85.9546 367.676 85.004C368.714 84.1893 369.901 83.7819 371.384 83.7819C372.867 83.7819 374.054 84.1893 375.092 85.004C376.279 85.9546 376.872 87.1767 376.872 88.6703V224.052C376.872 226.768 375.389 228.262 372.422 228.805C370.346 229.484 368.566 229.076 367.083 227.583C364.413 225.003 361.892 221.201 359.815 216.041C359.074 214.275 358.332 212.103 357.442 209.523L356.404 206.264L355.366 203.276C353.289 197.437 351.213 190.92 348.988 183.587L346.17 173.674L343.352 163.762L340.683 153.442L337.865 143.258C335.788 135.246 333.86 128.457 332.08 122.889C330.745 118.272 329.411 114.606 328.521 111.755V223.645C328.521 225.138 327.927 226.361 326.889 227.311C325.851 228.126 324.516 228.533 323.033 228.533C321.55 228.533 320.363 228.126 319.325 227.175C318.287 226.361 317.694 225.138 317.694 223.509V91.3861H317.397ZM423.146 228.126C413.358 225.546 405.942 218.077 401.196 205.856C396.45 193.771 394.076 178.02 394.225 158.466C394.225 138.233 396.598 122.074 400.899 110.261C406.832 94.5093 415.731 85.9546 427.893 84.4609H428.041C428.931 84.4609 429.969 84.4609 431.007 84.4609C431.304 84.4609 431.749 84.4609 432.045 84.5967H432.49H432.787C437.385 85.2756 441.241 86.9051 444.504 89.6209C449.695 93.9661 453.848 99.9408 456.963 107.545C459.336 113.248 461.115 120.173 462.302 128.457C464.527 143.393 465.12 159.009 463.785 175.44C462.599 191.599 459.781 203.684 455.479 211.695C452.216 217.534 447.767 222.151 442.279 225.41C436.198 229.076 429.672 230.027 423.146 228.126ZM408.315 123.432C405.645 135.653 404.607 149.504 405.2 164.712C405.793 181.414 408.018 194.314 411.726 203.276C413.951 208.572 416.769 212.51 420.032 215.226C424.333 218.892 429.079 219.843 434.27 218.077C438.72 216.584 442.428 213.325 445.246 208.572C447.322 205.042 448.954 200.561 450.288 195.129C452.216 186.982 453.403 176.798 453.7 164.576C453.996 148.01 452.958 134.296 450.585 123.432C450.14 121.803 449.843 120.445 449.547 119.359C449.102 117.729 448.657 116.236 448.212 114.878C447.025 111.211 445.691 108.088 444.356 105.372C440.499 98.1756 435.605 94.5093 429.376 94.3735C423.146 94.7809 418.252 98.4472 414.396 105.508C413.061 108.088 411.726 111.211 410.688 114.878C409.798 117.186 409.056 120.173 408.315 123.432ZM439.016 51.0567C440.055 49.8346 441.389 49.2915 442.873 49.2915C444.207 49.2915 445.394 49.8346 446.432 50.7852C447.47 51.7357 448.064 52.822 448.212 54.0441C448.36 55.5378 448.064 56.8957 446.877 57.982C445.987 58.9325 445.097 60.1546 444.059 61.5125L441.538 65.1788C439.313 68.4378 437.385 70.882 436.05 72.3756C435.012 73.5977 433.825 74.1409 432.342 74.1409C431.007 74.1409 429.821 73.5977 428.783 72.6472C427.744 71.6967 427.151 70.6104 426.854 69.3883C426.706 68.0304 427.151 66.6725 428.338 65.4504C429.227 64.4999 430.117 63.4136 431.156 62.0557L433.825 58.3894C435.902 54.9946 437.681 52.5504 439.016 51.0567ZM83.0571 347.756C82.9088 348.707 82.3156 349.25 81.574 349.657C80.8324 349.929 80.0908 350.065 79.2009 349.793C78.311 349.657 77.5694 349.114 77.1245 348.571C76.5312 347.892 76.5312 347.077 76.6795 346.262C78.311 339.473 79.9425 331.869 81.4257 323.314C82.4639 317.475 83.5021 309.464 84.9853 299.279L86.6167 287.194C87.21 282.713 87.8033 278.639 88.3965 275.245L88.5448 273.887L88.6932 272.529C88.8415 271.307 88.9898 270.356 89.1381 269.677C89.5831 267.505 90.3246 265.739 91.3629 264.517C92.6977 263.024 94.0325 262.752 95.5157 263.974C96.8506 264.925 97.7404 266.147 98.1854 267.776C99.5202 272.665 100.707 278.368 101.745 285.293C102.042 287.466 102.487 290.453 102.932 294.119L103.525 298.465L104.118 302.81C105.898 315.438 107.826 330.239 109.754 347.077C109.902 348.028 109.606 348.707 109.012 349.25C108.419 349.793 107.678 349.929 106.788 349.929C104.563 349.929 103.376 348.978 103.228 347.077V346.398L101.597 333.634H86.3201C85.2819 338.658 84.2437 343.411 83.0571 347.756ZM92.1044 295.341C90.3246 309.599 88.6932 320.327 87.3583 327.659H100.707C99.5203 318.154 98.3337 309.599 97.2955 301.995C96.109 293.305 94.9224 286.244 94.0325 280.948V280.812L92.9943 288.145L92.1044 295.341ZM154.397 381.432C151.728 381.16 150.393 379.802 150.393 377.358V264.653C150.393 263.295 150.986 262.209 152.024 261.53C152.914 260.851 154.101 260.579 155.287 260.579C165.966 260.308 174.568 264.11 180.946 272.122C186.73 279.318 189.548 287.873 189.548 298.057C189.548 304.711 188.955 310.143 187.768 314.624C185.989 320.734 182.726 325.215 178.276 328.338C177.386 329.017 176.2 329.696 175.013 330.239C180.204 333.091 184.209 336.621 187.324 341.102C190.586 345.855 192.07 350.879 192.07 356.311C192.07 365.001 188.955 371.791 182.726 376.679C179.463 379.395 175.162 381.024 169.971 381.432C168.042 381.703 165.669 381.703 163 381.703L159.44 381.568L155.88 381.432C155.287 381.703 154.842 381.568 154.397 381.432ZM159.44 325.079H160.182L161.961 324.944C162.703 324.944 163.148 324.944 163.741 324.808C168.932 323.993 172.64 322.364 174.865 319.784C177.386 316.932 179.018 313.13 179.908 308.241C180.501 304.575 180.649 300.23 180.204 295.477C179.611 288.688 177.683 282.985 174.42 278.368C170.712 273.072 165.669 269.949 159.292 269.134V325.079H159.44ZM159.44 373.42L161.813 373.556L164.186 373.692C165.966 373.692 167.449 373.692 168.784 373.556C172.195 373.149 175.013 372.062 176.941 370.161C181.243 366.223 183.022 361.063 182.429 354.953C181.836 349.386 179.314 344.769 174.865 340.831C170.564 337.029 165.373 334.856 159.292 334.041V373.42H159.44ZM206.16 265.739C205.863 264.517 206.16 263.431 206.901 262.345C207.791 261.258 208.978 260.715 210.609 260.715H243.832C245.315 260.715 246.353 261.123 247.095 262.073C247.837 262.888 248.133 263.838 248.133 264.925C248.133 266.011 247.837 266.962 247.095 267.776C246.205 268.727 245.167 269.134 243.832 269.134H215.207V318.29H243.832C245.315 318.29 246.353 318.697 247.095 319.648C247.837 320.462 248.133 321.413 248.133 322.499C248.133 323.586 247.837 324.536 247.095 325.351C246.205 326.301 245.167 326.709 243.832 326.709H215.207V373.556H243.832C245.315 373.556 246.353 373.963 247.095 374.778C247.837 375.593 248.133 376.543 248.133 377.63C248.133 378.716 247.837 379.667 247.095 380.481C246.205 381.432 245.167 381.839 243.832 381.839H210.609C209.126 381.839 208.088 381.296 207.198 380.346C206.456 379.531 206.16 378.58 206.16 377.63V265.739ZM270.232 378.852C269.936 380.074 269.194 381.024 268.156 381.432C267.118 381.839 266.079 381.975 264.893 381.703C263.706 381.432 262.668 380.889 262.075 379.938C261.333 378.988 261.185 377.901 261.482 376.679C263.855 367.174 265.931 356.582 268.008 344.497C269.342 336.35 270.974 325.079 272.902 310.957L275.127 294.119C276.017 287.873 276.758 282.306 277.5 277.417L277.648 275.516L277.945 273.615C278.093 271.986 278.241 270.628 278.538 269.677C279.131 266.554 280.17 264.246 281.653 262.481C283.432 260.308 285.361 260.036 287.585 261.666C289.365 263.024 290.552 264.789 291.293 266.962C293.221 273.751 294.853 281.898 296.336 291.404C296.781 294.527 297.374 298.6 297.967 303.76L298.857 309.871L299.747 315.981C302.269 333.634 304.79 354.274 307.608 377.766C307.756 378.988 307.46 379.938 306.57 380.753C305.828 381.432 304.79 381.703 303.604 381.703C300.489 381.703 298.857 380.346 298.561 377.63L298.412 376.679L296.188 358.755H274.83C273.347 366.088 271.864 372.606 270.232 378.852ZM282.839 305.526C280.318 325.351 278.093 340.424 276.165 350.608H294.853C293.073 337.3 291.59 325.351 290.107 314.759C288.327 302.674 286.844 292.762 285.657 285.429V285.157L284.322 295.341L282.839 305.526ZM311.168 269.27C309.684 269.27 308.646 268.863 307.905 267.912C307.163 267.097 306.866 266.147 306.866 265.061C306.866 263.974 307.163 263.024 307.905 262.209C308.795 261.258 309.833 260.851 311.168 260.851H355.514C356.997 260.851 358.036 261.258 358.777 262.209C359.519 263.024 359.815 263.974 359.815 265.061C359.815 266.147 359.519 267.097 358.777 267.912C357.887 268.863 356.849 269.27 355.366 269.27H337.865V377.901C337.865 379.259 337.42 380.21 336.381 380.889C335.492 381.568 334.453 381.839 333.267 381.839C332.08 381.839 331.042 381.568 330.152 380.889C329.114 380.074 328.669 379.123 328.669 377.901V269.27H311.168ZM375.24 267.641C374.499 266.283 374.35 264.925 375.092 263.567C375.834 261.937 377.168 261.123 379.096 260.987C393.335 260.172 403.569 263.431 409.65 271.035C415.137 277.96 417.955 286.787 418.104 297.378C418.104 308.92 415.434 318.018 410.095 324.944C407.573 327.931 404.459 330.647 400.602 332.819C402.234 339.066 405.052 346.398 408.76 354.546L411.281 359.841L413.803 365.137C416.027 369.754 417.807 373.285 418.845 375.729C419.439 376.951 419.439 378.037 418.994 379.123C418.549 380.074 417.807 380.889 416.621 381.432C415.582 381.975 414.544 382.247 413.506 381.975C412.319 381.703 411.429 381.025 410.985 379.802C409.798 377.222 408.167 373.692 405.793 369.075L403.124 363.779L400.602 358.483C396.598 350.2 393.78 342.868 392 336.486C389.479 337.165 386.957 337.708 384.436 337.979V378.037C384.436 379.395 383.991 380.346 382.953 381.024C382.063 381.703 381.025 381.975 379.838 381.975C378.652 381.975 377.613 381.703 376.723 381.024C375.685 380.21 375.24 379.259 375.24 378.037V267.641ZM384.436 329.289C392.89 328.338 399.268 324.4 403.717 317.475C407.573 311.365 409.205 304.168 408.76 295.749C408.315 287.33 406.238 280.812 402.53 276.059C398.674 271.443 392.742 268.998 384.436 268.998V329.289ZM442.724 377.901C442.724 379.259 442.279 380.21 441.389 380.889C440.499 381.568 439.461 381.839 438.275 381.839C437.088 381.839 436.05 381.568 435.16 380.889C434.122 380.074 433.677 379.123 433.677 377.901V264.653C433.677 263.431 434.122 262.345 435.16 261.666C436.05 260.987 437.088 260.715 438.275 260.715C439.461 260.715 440.499 260.987 441.389 261.666C442.279 262.345 442.724 263.431 442.724 264.653V377.901ZM460.077 269.134C458.594 269.134 457.556 268.727 456.814 267.912C456.073 267.097 455.776 266.147 455.776 265.061C455.776 263.838 456.073 262.888 456.814 262.073C457.704 261.258 458.742 260.851 460.077 260.851H502.496C503.682 260.851 504.572 261.123 505.462 261.802C507.093 262.752 507.538 264.246 506.945 266.147C490.185 309.599 476.837 345.176 467.048 372.877C481.435 371.791 493.597 371.927 503.386 373.013C504.72 373.285 505.759 373.828 506.649 374.778C507.39 375.729 507.687 376.679 507.687 377.766C507.687 378.852 507.39 379.802 506.649 380.481C505.907 381.296 504.72 381.568 503.386 381.432C492.855 380.074 478.468 380.21 460.374 381.839C458.594 381.975 457.259 381.432 456.518 380.074C455.776 378.852 455.776 377.494 456.518 376.136C466.306 348.163 479.507 312.451 496.118 269.134H460.077ZM623.641 197.302C628.98 232.064 618.598 267.912 592.346 304.847L587.451 311.365L582.557 318.426C578.108 324.129 574.845 328.746 572.472 332.412C565.056 343.411 560.013 353.459 557.343 362.286C554.674 372.47 553.635 385.098 554.377 400.171L554.97 409.676L555.563 419.181C556.157 427.057 556.453 433.439 556.602 438.192C556.602 441.994 555.119 444.981 552.152 447.154C549.779 449.191 546.664 450.141 542.808 450.141C539.1 450.005 535.986 448.919 533.464 446.882C530.498 444.71 529.015 441.722 529.015 437.92C529.015 433.575 528.718 428.279 528.125 422.169L526.79 406.146C525.9 393.246 526.048 382.654 527.383 374.235C529.756 357.533 535.837 341.51 545.478 326.03C548.741 320.87 553.487 313.945 559.716 305.254L567.132 294.934L574.548 284.343C585.672 267.776 592.643 252.839 595.312 239.396C596.35 234.372 597.24 228.805 597.834 222.83C598.427 215.362 598.427 208.301 597.834 201.783C596.202 184.538 590.566 174.082 580.926 170.144C568.17 164.848 560.31 170.415 557.343 186.982C556.305 192.549 555.86 199.339 556.008 207.486C556.008 209.93 556.157 213.053 556.305 216.448L556.602 219.978C556.602 221.336 556.602 222.287 556.602 222.966C556.75 226.632 555.563 229.62 552.745 231.928C550.224 233.965 547.109 234.915 543.401 234.644C539.545 234.644 536.431 233.693 533.761 231.656C530.795 229.484 529.311 226.496 529.311 222.694L529.015 217.127V211.831C528.867 207.35 528.867 203.276 529.015 199.746C529.163 190.512 530.201 182.636 531.981 176.119C536.727 158.738 547.703 148.418 564.907 145.023C581.37 141.9 595.016 146.245 605.991 158.059C615.335 168.107 621.119 181.143 623.641 197.302ZM542.66 479.743C546.813 479.743 550.076 481.101 552.449 483.817C554.674 486.125 555.712 488.977 555.712 492.372C555.712 495.766 554.674 498.618 552.449 500.926C549.927 503.642 546.516 505 542.363 505C538.359 505 535.096 503.642 532.574 500.926C530.35 498.618 529.311 495.766 529.608 492.372C529.608 488.977 530.646 486.125 532.871 483.817C535.096 481.101 538.359 479.743 542.66 479.743Z" fill="white"/>
</svg>
